/* XPM */
static char * elexis48_xpm[] = {
"48 48 23 1",
" 	c None",
".	c #EAEAEA",
"+	c #E3E3E3",
"@	c #DDDDDD",
"#	c #66CCFF",
"$	c #99CCFF",
"%	c #A6CAF0",
"&	c #D7D7D7",
"*	c #3399FF",
"=	c #33CCFF",
"-	c #CCCCCC",
";	c #FF0011",
">	c #0099FF",
",	c #CBCBCB",
"'	c #C0C0C0",
")	c #CCCCFF",
"!	c #666699",
"~	c #9999CC",
"{	c #969696",
"]	c #555555",
"^	c #333366",
"/	c #4D4D4D",
"(	c #5F5F5F",
"........................+++++++++++++++@@@@@@   ",
"........................+++++++++++++++@@@@@@   ",
"........................+++++++++++++++@@@@@@   ",
"...#########$$$$$$$$$$$$$$$$$$$$$$$$$$$%%%@@@   ",
"...#########$$$$$$$$$$$$$$$$$$$$$$$$$$$%%%@@@   ",
"...#########$$$$$$$$$$$$$$$$$$$$$$$$$$$%%%@@@   ",
"...###############$$$$$$$$$$$$$$$$$$$$$$$$@@@   ",
"...###############$$$$$$$$$$$$$$$$$$$$$$$$@@@   ",
"...###############$$$$$$$$$$$$$$$$$$$$$$$$@@@   ",
"...########################$$$$$$$$$$$$$$$&&&   ",
"...########################$$$$$$$$$$$$$$$&&&   ",
"...########################$$$$$$$$$$$$$$$&&&   ",
"...#################################$$$$$$&&&   ",
"...#################################$$$$$$&&&   ",
"...#################################$$$$$$&&&   ",
"...*********##############################&&&   ",
"...*********##############################&&&   ",
"...*********##############################&&&   ",
"...***************===#####################---   ",
"...***************===##########;;;;#######---   ",
"...***************===##########;;;;#######---   ",
"+++************************####;;;;#######---   ",
"+++************************####;;;;#######---   ",
"+++************************;;;;;;;;;;;;###---   ",
"+++************************;;;;;;;;;;;;###---   ",
"+++************************;;;;;;;;;;;;###---   ",
"+++************************;;;;;;;;;;;;###---   ",
"+++>>>*************************;;;;*******,,,   ",
"+++>>>*************************;;;;*******,,,   ",
"+++>>>*************************;;;;*******,,,   ",
"+++>>>>>>>>>>>>****************;;;;*******'''   ",
"+++>>>>>>>>>>>>***************************'''   ",
"+++>>>>>>>>>>>>***************************'''   ",
"@@@@@@@@@@@@)))&&&&&&&&&---------,,,,,,''''''   ",
"@@@@@@@@@@@@)))&&&&&&&&&---------,,,,,,''''''   ",
"@@@@@@@@@@@@)))&&&&&&&&&---------,,,,,,''''''   ",
"         ---...@@@'''''''''!!!~~~{{{            ",
"         ---...@@@'''''''''!!!~~~{{{            ",
"         ---...@@@'''''''''!!!~~~{{{            ",
"         ---&&&]]]]]]^^^///!!!~~~~~~            ",
"         ---&&&]]]]]]^^^///!!!~~~~~~            ",
"         ---&&&]]]]]]^^^///!!!~~~~~~            ",
"         !!!!!!!!!!!!!!!!!!!!!(((^^^            ",
"         !!!!!!!!!!!!!!!!!!!!!(((^^^            ",
"         !!!!!!!!!!!!!!!!!!!!!(((^^^            ",
"                                                ",
"                                                ",
"                                                "};
